<?xml version="1.0" encoding="iso-8859-1"?>
<!-- Generator: Adobe Illustrator 19.0.0, SVG Export Plug-In . SVG Version: 6.00 Build 0)  -->
<svg version="1.1" id="Capa_1" xmlns="http://www.w3.org/2000/svg" xmlns:xlink="http://www.w3.org/1999/xlink" x="0px" y="0px"
	 viewBox="0 0 512 512" style="enable-background:new 0 0 512 512;" xml:space="preserve">
<g>
	<g>
		<rect x="336" y="200" style="fill:#5C546A;" width="40" height="176"/>
	</g>
	<g>
		<path style="fill:#5C546A;" d="M480,392H32c-8.837,0-16-7.163-16-16v-16h480v16C496,384.837,488.837,392,480,392z"/>
	</g>
	<g>
		<path style="fill:#FF4F19;" d="M492.031,247.459l-77.883-108.58C412.625,137.055,410.375,136,408,136h-32c-4.422,0-8,3.582-8,8
			v216c0,4.418,3.578,8,8,8h112c13.234,0,24-10.766,24-24v-72.881C512,259.256,503.352,249.377,492.031,247.459z"/>
	</g>
	<g>
		<path style="fill:#5C546A;" d="M446.702,144c10.33,0,19.502,6.61,22.768,16.411l22.561,87.048c0,0-57.544-11.693-74.491-16.34
			C407.143,228.269,400,218.78,400,208v-64H446.702z"/>
	</g>
	<g>
		<g>
			<path style="fill:#8A8895;" d="M400,152c-4.422,0-8-3.582-8-8v-38.059c0-4.27-1.664-8.289-4.688-11.316l-8.969-8.969
				c-3.125-3.125-3.125-8.188,0-11.313s8.188-3.125,11.313,0l8.969,8.969c6.047,6.051,9.375,14.086,9.375,22.629V144
				C408,148.418,404.422,152,400,152z"/>
		</g>
	</g>
	<g>
		<path style="fill:#527991;" d="M328,104H24c-13.234,0-24,10.766-24,24v216c0,13.234,10.766,24,24,24c0,0,315.578,0,320,0
			s8-3.582,8-8V128C352,114.766,341.234,104,328,104z"/>
	</g>
	<g>
		<path style="fill:#5D647F;" d="M0,344c0,13.234,10.766,24,24,24h320c4.422,0,8-3.582,8-8v-56H0V344z"/>
	</g>
	<g>
		<path style="fill:#8A8895;" d="M248,408h-64c-8.837,0-16-7.163-16-16v-16c0-8.837,7.163-16,16-16h64c8.837,0,16,7.163,16,16v16
			C264,400.837,256.837,408,248,408z"/>
	</g>
	<g>
		<g>
			<path style="fill:#5C546A;" d="M192,392c-2.078,0-4.164-0.883-5.68-2.32c-1.445-1.52-2.32-3.602-2.32-5.68
				c0-2.082,0.875-4.16,2.32-5.68c3.039-2.961,8.398-2.961,11.359,0c1.438,1.52,2.32,3.598,2.32,5.68c0,2.078-0.883,4.16-2.398,5.68
				C196.156,391.117,194.078,392,192,392z"/>
		</g>
	</g>
	<g>
		<path style="fill:#FFD100;" d="M484,304c-6.627,0-12,5.373-12,12s5.373,12,12,12h12v-24H484z"/>
	</g>
	<g>
		<g>
			<circle style="fill:#5C546A;" cx="96" cy="384" r="56"/>
		</g>
		<g>
			<circle style="fill:#8A8895;" cx="96" cy="384" r="32"/>
		</g>
	</g>
	<g>
		<g>
			<circle style="fill:#5C546A;" cx="416" cy="384" r="56"/>
		</g>
		<g>
			<circle style="fill:#8A8895;" cx="416" cy="384" r="32"/>
		</g>
	</g>
	<g>
		<rect x="496" y="304" style="fill:#FFFFFF;" width="16" height="24"/>
	</g>
	<g>
		<path style="fill:#E7001E;" d="M472,136h-96c-4.418,0-8,3.582-8,8v8h104c4.422,0,8-3.582,8-8S476.422,136,472,136z"/>
	</g>
</g>
<g>
</g>
<g>
</g>
<g>
</g>
<g>
</g>
<g>
</g>
<g>
</g>
<g>
</g>
<g>
</g>
<g>
</g>
<g>
</g>
<g>
</g>
<g>
</g>
<g>
</g>
<g>
</g>
<g>
</g>
</svg>
